<svg width="117" height="44" xmlns="http://www.w3.org/2000/svg">
  <path
    class="circle-outline"
    d="M74.2233 27.743C75.7904 32.2627 79.0003 35.9669 83.225 38.9732C87.254 41.8342 92.182 42.0582 96.965 40.4452C101.763 38.8272 106.292 35.3922 109.313 31.1682C113.576 25.1952 114.505 19.6332 113.155 15.2132C111.805 10.7932 108.089 7.21919 102.443 5.38619H102.445C93.416 2.45119 83.642 3.05119 77.775 8.85719L77.773 8.85919C76.1173 10.4927 74.5954 13.0297 73.7766 16.177C73.7044 16.4547 73.6376 16.7371 72.2253 16.9827C70.9301 16.6442 70.9921 16.3507 71.0593 16.061C71.9532 12.2115 73.788 9.04454 75.9 6.96119C82.786 0.147191 93.793 -0.229809 103.269 2.85019C109.56 4.89219 114.053 9.01519 115.707 14.4322C117.361 19.8492 116.092 26.2622 111.484 32.7172C108.155 37.3712 103.175 41.1642 97.819 42.9702C92.448 44.7812 86.578 44.6232 81.681 41.1452C76.9806 37.8009 73.2568 33.5088 71.5349 28.109C71.4092 27.7148 71.2941 27.3147 72.5354 26.7784C73.9842 27.0183 74.0986 27.3833 74.2233 27.743Z"
    fill="#3EDF86"
  />
  <path
    d="M92.337 29.5522L89.195 22.5022L86.075 29.5522H81.317L86.363 18.5242L84.888 15.2342L89.004 12.8902L97.088 29.5522H92.337Z"
    fill="white"
  />
  <path
    d="M102.702 17.0152C103.682 16.0492 103.682 14.5462 102.702 13.6072C101.75 12.6412 100.226 12.6412 99.246 13.6072C98.293 14.5462 98.293 16.0492 99.246 17.0152C100.226 17.9542 101.75 17.9542 102.702 17.0152ZM103.104 18.6782C101.813 19.4712 100.168 19.4712 98.855 18.6782H98.848V29.5522H103.142V18.6782H103.105H103.104Z"
    fill="white"
  />
  <path
    d="M73.403 19.4232C73.403 18.8812 73.803 18.6242 74.602 18.6242C75.43 18.6242 76.058 19.0522 76.514 19.8802L80.167 17.9112C78.997 15.9422 76.97 14.8572 74.601 14.8572C73.031 14.8572 71.69 15.2572 70.605 16.0842C69.549 16.9122 69.007 18.0532 69.007 19.5372C69.007 22.4482 71.576 23.4192 73.545 23.9612C74.915 24.3032 76.028 24.6462 76.028 25.2172C76.028 25.8162 75.514 26.1022 74.487 26.1022C73.26 26.1022 72.432 25.5312 72.061 24.4182L68.351 26.5302C69.436 28.7852 71.491 29.9262 74.487 29.9262C76.171 29.9262 77.569 29.5262 78.711 28.7562C79.853 27.9572 80.424 26.7872 80.424 25.2452C80.452 22.1342 77.855 21.1062 75.886 20.6782C74.516 20.3072 73.403 19.9942 73.403 19.4232ZM60.814 14.8562C58.959 14.8562 57.589 15.4272 56.733 16.5972V15.2562H52.452V29.5272H56.733V21.7352C56.733 19.7942 57.761 18.7952 59.387 18.7952C60.843 18.7952 61.87 19.7082 61.87 21.3922V29.5262H66.151V20.7642C66.151 18.9092 65.637 17.4822 64.61 16.4262C63.611 15.3702 62.327 14.8562 60.814 14.8562ZM44.687 16.5972C43.688 15.4272 42.261 14.8562 40.434 14.8562C38.55 14.8562 36.952 15.5982 35.611 17.0542C34.27 18.5102 33.613 20.2792 33.613 22.3912C33.613 24.5032 34.27 26.3012 35.611 27.7572C36.952 29.2132 38.551 29.9262 40.434 29.9262C42.261 29.9262 43.688 29.3552 44.687 28.1852V29.5262H48.968V15.2562H44.687V16.5972ZM38.836 24.9312C38.208 24.3032 37.894 23.4472 37.894 22.3912C37.894 21.3352 38.208 20.4792 38.836 19.8512C39.464 19.2232 40.292 18.9092 41.291 18.9092C42.29 18.9092 43.118 19.2232 43.746 19.8512C44.374 20.4792 44.688 21.3352 44.688 22.3912C44.688 23.4472 44.374 24.3032 43.746 24.9312C43.118 25.5592 42.29 25.8732 41.291 25.8732C40.292 25.8732 39.464 25.5592 38.836 24.9312ZM25.629 24.3042L22.661 15.2562H17.923L23.203 29.5272H28.055L33.335 15.2562H28.597L25.629 24.3042ZM12.074 16.5972C11.075 15.4272 9.648 14.8562 7.821 14.8562C5.937 14.8562 4.339 15.5982 2.997 17.0542C1.655 18.5102 1 20.2792 1 22.3912C1 24.5032 1.656 26.3012 2.998 27.7572C4.34 29.2132 5.938 29.9262 7.822 29.9262C9.649 29.9262 11.076 29.3552 12.075 28.1852V29.5262H16.356V15.2562H12.075L12.074 16.5972ZM6.223 24.9322C5.595 24.3042 5.281 23.4482 5.281 22.3922C5.281 21.3362 5.595 20.4802 6.223 19.8522C6.851 19.2242 7.679 18.9102 8.678 18.9102C9.677 18.9102 10.505 19.2242 11.133 19.8522C11.761 20.4802 12.075 21.3362 12.075 22.3922C12.075 23.4482 11.761 24.3042 11.133 24.9322C10.505 25.5602 9.677 25.8742 8.678 25.8742C7.679 25.8742 6.851 25.5602 6.223 24.9322Z"
    fill="white"
  />
</svg>
